{
  "accessors": [
    {
      "bufferView": 0,
      "componentType": 5126,
      "count": 66199,
      "max": [
        1.2594735622406006,
        1.4222960472106934,
        2.227506637573242
      ],
      "min": [
        -1.2594735622406006,
        -1.4222960472106934,
        -2.227506637573242
      ],
      "type": "VEC3"
    },
    {
      "bufferView": 1,
      "componentType": 5125,
      "count": 346329,
      "type": "SCALAR"
    },
    {
      "bufferView": 2,
      "componentType": 5126,
      "count": 66199,
      "type": "VEC2"
    }
  ],
  "asset": {
    "generator": "Polycam",
    "version": "2.0"
  },
  "bufferViews": [
    {
      "buffer": 0,
      "byteLength": 794388,
      "byteOffset": 0
    },
    {
      "buffer": 0,
      "byteLength": 1385316,
      "byteOffset": 794388
    },
    {
      "buffer": 0,
      "byteLength": 529592,
      "byteOffset": 2179704
    }
  ],
  "buffers": [
    {
      "uri": "poly_color_data.bin",
      "byteLength": 2709296
    }
  ],
  "images": [
    {
      "uri": "poly_color_img0.jpg"
    }
  ],
  "materials": [
    {
      "pbrMetallicRoughness": {
        "baseColorTexture": {
          "index": 0
        },
        "metallicFactor": 0
      }
    }
  ],
  "meshes": [
    {
      "primitives": [
        {
          "attributes": {
            "POSITION": 0,
            "TEXCOORD_0": 2
          },
          "indices": 1,
          "material": 0,
          "mode": 4
        }
      ]
    }
  ],
  "nodes": [
    {
      "mesh": 0
    }
  ],
  "scene": 0,
  "scenes": [
    {
      "nodes": [
        0
      ]
    }
  ],
  "textures": [
    {
      "source": 0
    }
  ]
}